<?xml version="1.0" encoding="UTF-8" standalone="no"?>
<svg
   xmlns:dc="http://purl.org/dc/elements/1.1/"
   xmlns:cc="http://creativecommons.org/ns#"
   xmlns:rdf="http://www.w3.org/1999/02/22-rdf-syntax-ns#"
   xmlns:svg="http://www.w3.org/2000/svg"
   xmlns="http://www.w3.org/2000/svg"
   xmlns:xlink="http://www.w3.org/1999/xlink"
   xmlns:sodipodi="http://sodipodi.sourceforge.net/DTD/sodipodi-0.dtd"
   xmlns:inkscape="http://www.inkscape.org/namespaces/inkscape"
   width="48px"
   height="48px"
   viewBox="0 0 160 160"
   version="1.1"
   id="svg16">
  <defs
     id="defs21">
    <linearGradient
       id="linearGradient4510">
      <stop
         id="stop4506"
         offset="0"
         style="stop-color:#37c8ab;stop-opacity:1" />
      <stop
         id="stop4508"
         offset="1"
         style="stop-color:#55ddff;stop-opacity:1" />
    </linearGradient>
    <linearGradient
       xlink:href="#linearGradient4510"
       id="linearGradient4504"
       gradientUnits="userSpaceOnUse"
       gradientTransform="matrix(2.0159157,0,0,2.4233278,-81.279511,-124.05971)"
       x1="37.288136"
       y1="131.52542"
       x2="136.94916"
       y2="27.118645" />
  </defs>
  <metadata
     id="metadata888">
    <rdf:RDF>
      <cc:Work
         rdf:about="">
        <dc:format>image/svg+xml</dc:format>
        <dc:type
           rdf:resource="http://purl.org/dc/dcmitype/StillImage" />
        <cc:license
           rdf:resource="http://creativecommons.org/licenses/GPL/2.0/" />
        <dc:title />
      </cc:Work>
      <cc:License
         rdf:about="http://creativecommons.org/licenses/GPL/2.0/">
        <cc:permits
           rdf:resource="http://web.resource.org/cc/Reproduction" />
        <cc:permits
           rdf:resource="http://web.resource.org/cc/Distribution" />
        <cc:requires
           rdf:resource="http://web.resource.org/cc/Notice" />
        <cc:permits
           rdf:resource="http://web.resource.org/cc/DerivativeWorks" />
        <cc:requires
           rdf:resource="http://web.resource.org/cc/ShareAlike" />
        <cc:requires
           rdf:resource="http://web.resource.org/cc/SourceCode" />
      </cc:License>
    </rdf:RDF>
  </metadata>
  <radialGradient
     id="paint"
     cx="67"
     cy="67"
     r="100"
     gradientUnits="userSpaceOnUse">
    <stop
       offset="0"
       style="stop-color:#808080"
       id="stop3" />
    <stop
       offset="0.12"
       style="stop-color:#606060"
       id="stop5" />
    <stop
       offset="0.45"
       style="stop-color:#202020"
       id="stop7" />
    <stop
       offset="1"
       style="stop-color:#000000"
       id="stop9" />
  </radialGradient>
  <g
     id="layer3"
     style="display:inline">
    <ellipse
       ry="101.04044"
       rx="101.13745"
       cy="78.842644"
       cx="81.360451"
       id="ellipse4499"
       style="display:inline;opacity:1;fill:url(#linearGradient4504);fill-opacity:1;stroke:none;stroke-width:3.3333323;stroke-linecap:butt;stroke-miterlimit:4;stroke-dasharray:none;stroke-opacity:1" />
  </g>
  <g
     id="layer2"
     style="display:inline">
    <path
       d="M 155,84.839 V 75.161 H 133.967 C 132.964,63.832 128.481,53.506 121.584,45.26 l 14.87,-14.871 -6.842,-6.843 -14.872,14.871 C 106.494,31.52 96.167,27.037 84.839,26.033 V 5 h -9.678 v 21.033 c -11.33,1.003 -21.657,5.486 -29.903,12.383 l -14.87,-14.87 -6.843,6.843 14.87,14.87 C 31.519,53.506 27.036,63.833 26.032,75.162 H 5 v 9.678 h 21.033 c 1.003,11.331 5.485,21.658 12.382,29.903 l -14.869,14.87 6.843,6.842 14.869,-14.868 c 8.246,6.896 18.573,11.378 29.904,12.381 V 155 h 9.678 v -21.033 c 11.329,-1.003 21.656,-5.485 29.902,-12.382 l 14.871,14.869 6.842,-6.842 -14.869,-14.871 c 6.896,-8.245 11.379,-18.572 12.382,-29.902 H 155 V 84 Z"
       id="path12"
       style="fill:url(#paint);stroke:#000000;stroke-width:5" />
    <circle
       cx="80"
       cy="80"
       r="6"
       id="circle14"
       style="fill:none;stroke:#000000;stroke-width:4" />
    <circle
       cx="80"
       cy="80"
       r="50"
       id="circle16"
       style="fill:none;stroke:#000000;stroke-width:5" />
  </g>
</svg>
